<?xml version="1.0" encoding="UTF-8"?><svg xmlns="http://www.w3.org/2000/svg" xmlns:xlink="http://www.w3.org/1999/xlink" fill-opacity="1" color-rendering="auto" color-interpolation="auto" text-rendering="auto" stroke="black" stroke-linecap="square" width="642" stroke-miterlimit="10" shape-rendering="auto" stroke-opacity="1" fill="black" stroke-dasharray="none" font-weight="normal" stroke-width="1" height="312" font-family="'Dialog'" font-style="normal" stroke-linejoin="miter" font-size="12px" stroke-dashoffset="0" image-rendering="auto">
  <!--Generated by ySVG 2.5-->
  <defs id="genericDefs"/>
  <g>
    <defs id="defs1">
      <linearGradient x1="329" gradientUnits="userSpaceOnUse" x2="486" y1="162" y2="202" id="linearGradient1" spreadMethod="reflect">
        <stop stop-opacity="1" stop-color="rgb(232,238,247)" offset="0%"/>
        <stop stop-opacity="1" stop-color="rgb(183,201,227)" offset="100%"/>
      </linearGradient>
      <linearGradient x1="784" gradientUnits="userSpaceOnUse" x2="941" y1="162" y2="202" id="linearGradient2" spreadMethod="reflect">
        <stop stop-opacity="1" stop-color="rgb(232,238,247)" offset="0%"/>
        <stop stop-opacity="1" stop-color="rgb(183,201,227)" offset="100%"/>
      </linearGradient>
      <linearGradient x1="329" gradientUnits="userSpaceOnUse" x2="486" y1="202" y2="292" id="linearGradient3" spreadMethod="reflect">
        <stop stop-opacity="1" stop-color="rgb(232,238,247)" offset="0%"/>
        <stop stop-opacity="1" stop-color="rgb(183,201,227)" offset="100%"/>
      </linearGradient>
      <linearGradient x1="784" gradientUnits="userSpaceOnUse" x2="941" y1="202" y2="292" id="linearGradient4" spreadMethod="reflect">
        <stop stop-opacity="1" stop-color="rgb(232,238,247)" offset="0%"/>
        <stop stop-opacity="1" stop-color="rgb(183,201,227)" offset="100%"/>
      </linearGradient>
      <linearGradient x1="329" gradientUnits="userSpaceOnUse" x2="486" y1="319" y2="359" id="linearGradient5" spreadMethod="reflect">
        <stop stop-opacity="1" stop-color="rgb(232,238,247)" offset="0%"/>
        <stop stop-opacity="1" stop-color="rgb(183,201,227)" offset="100%"/>
      </linearGradient>
      <linearGradient x1="784" gradientUnits="userSpaceOnUse" x2="941" y1="292" y2="332" id="linearGradient6" spreadMethod="reflect">
        <stop stop-opacity="1" stop-color="rgb(232,238,247)" offset="0%"/>
        <stop stop-opacity="1" stop-color="rgb(183,201,227)" offset="100%"/>
      </linearGradient>
      <clipPath clipPathUnits="userSpaceOnUse" id="clipPath1">
        <path d="M0 0 L642 0 L642 312 L0 312 L0 0 Z"/>
      </clipPath>
      <clipPath clipPathUnits="userSpaceOnUse" id="clipPath2">
        <path d="M314 62 L956 62 L956 374 L314 374 L314 62 Z"/>
      </clipPath>
      <clipPath clipPathUnits="userSpaceOnUse" id="clipPath3">
        <path d="M-416.8812 -106.6667 L153.7854 -106.6667 L153.7854 170.6667 L-416.8812 170.6667 L-416.8812 -106.6667 Z"/>
      </clipPath>
      <clipPath clipPathUnits="userSpaceOnUse" id="clipPath4">
        <path d="M153.8159 106.6667 L-416.8507 106.6667 L-416.8507 -170.6667 L153.8159 -170.6667 L153.8159 106.6667 Z"/>
      </clipPath>
    </defs>
    <g fill="white" text-rendering="geometricPrecision" shape-rendering="geometricPrecision" transform="translate(-314,-62)" stroke="white">
      <rect x="314" width="642" height="312" y="62" clip-path="url(#clipPath2)" stroke="none"/>
    </g>
    <g fill="url(#linearGradient1)" text-rendering="geometricPrecision" shape-rendering="geometricPrecision" transform="matrix(1,0,0,1,-314,-62)" stroke="url(#linearGradient1)">
      <path d="M329 162 L486 162 L486 202 L329 202 Z" stroke="none" clip-path="url(#clipPath2)"/>
    </g>
    <g text-rendering="geometricPrecision" stroke-miterlimit="1.45" shape-rendering="geometricPrecision" transform="matrix(1,0,0,1,-314,-62)" stroke-linecap="butt">
      <path fill="none" d="M329 162 L486 162 L486 202 L329 202 Z" clip-path="url(#clipPath2)"/>
      <text x="359.5703" font-size="20px" y="188.9238" clip-path="url(#clipPath2)" font-family="sans-serif" stroke="none" xml:space="preserve">Fat Client</text>
    </g>
    <g fill="url(#linearGradient2)" text-rendering="geometricPrecision" shape-rendering="geometricPrecision" transform="matrix(1,0,0,1,-314,-62)" stroke="url(#linearGradient2)">
      <path d="M784 162 L941 162 L941 202 L784 202 Z" stroke="none" clip-path="url(#clipPath2)"/>
    </g>
    <g text-rendering="geometricPrecision" stroke-miterlimit="1.45" shape-rendering="geometricPrecision" transform="matrix(1,0,0,1,-314,-62)" stroke-linecap="butt">
      <path fill="none" d="M784 162 L941 162 L941 202 L784 202 Z" clip-path="url(#clipPath2)"/>
      <text x="808.8086" font-size="20px" y="188.9238" clip-path="url(#clipPath2)" font-family="sans-serif" stroke="none" xml:space="preserve">Thin Client</text>
    </g>
    <g fill="url(#linearGradient3)" text-rendering="geometricPrecision" shape-rendering="geometricPrecision" transform="matrix(1,0,0,1,-314,-62)" stroke="url(#linearGradient3)">
      <path d="M329 202 L486 202 L486 292 L329 292 Z" stroke="none" clip-path="url(#clipPath2)"/>
    </g>
    <g text-rendering="geometricPrecision" stroke-miterlimit="1.45" shape-rendering="geometricPrecision" transform="matrix(1,0,0,1,-314,-62)" stroke-linecap="butt">
      <path fill="none" d="M329 202 L486 202 L486 292 L329 292 Z" clip-path="url(#clipPath2)"/>
      <text x="338.3594" xml:space="preserve" y="223.2168" clip-path="url(#clipPath2)" font-family="sans-serif" stroke="none">- Client Side Rendering</text>
      <text x="338.3594" xml:space="preserve" y="237.1855" clip-path="url(#clipPath2)" font-family="sans-serif" stroke="none">  (Javascript)</text>
      <text x="338.3594" xml:space="preserve" y="251.1543" clip-path="url(#clipPath2)" font-family="sans-serif" stroke="none">- Decoupled</text>
      <text x="338.3594" xml:space="preserve" y="265.123" clip-path="url(#clipPath2)" font-family="sans-serif" stroke="none">- (Many frontends,</text>
      <text x="338.3594" xml:space="preserve" y="279.0918" clip-path="url(#clipPath2)" font-family="sans-serif" stroke="none">   not only web)</text>
    </g>
    <g fill="url(#linearGradient4)" text-rendering="geometricPrecision" shape-rendering="geometricPrecision" transform="matrix(1,0,0,1,-314,-62)" stroke="url(#linearGradient4)">
      <path d="M784 202 L941 202 L941 292 L784 292 Z" stroke="none" clip-path="url(#clipPath2)"/>
    </g>
    <g text-rendering="geometricPrecision" stroke-miterlimit="1.45" shape-rendering="geometricPrecision" transform="matrix(1,0,0,1,-314,-62)" stroke-linecap="butt">
      <path fill="none" d="M784 202 L941 202 L941 292 L784 292 Z" clip-path="url(#clipPath2)"/>
      <text x="791.0537" xml:space="preserve" y="237.1855" clip-path="url(#clipPath2)" font-family="sans-serif" stroke="none">- Server Side Rendering</text>
      <text x="791.0537" xml:space="preserve" y="251.1543" clip-path="url(#clipPath2)" font-family="sans-serif" stroke="none">  (Templating)</text>
      <text x="791.0537" xml:space="preserve" y="265.123" clip-path="url(#clipPath2)" font-family="sans-serif" stroke="none">- Coupled to backend</text>
    </g>
    <g text-rendering="geometricPrecision" stroke-miterlimit="1.45" shape-rendering="geometricPrecision" transform="matrix(1,0,0,1,-314,-62)" stroke-linecap="butt">
      <path fill="none" d="M506 77 L762 77 L762 117 L506 117 Z" clip-path="url(#clipPath2)"/>
      <text x="564.7041" xml:space="preserve" y="101.1543" clip-path="url(#clipPath2)" font-family="sans-serif" stroke="none">Web apps (ideal types)</text>
    </g>
    <g fill="url(#linearGradient5)" text-rendering="geometricPrecision" shape-rendering="geometricPrecision" transform="matrix(1,0,0,1,-314,-62)" stroke="url(#linearGradient5)">
      <path d="M329 319 L486 319 L486 359 L329 359 Z" stroke="none" clip-path="url(#clipPath2)"/>
    </g>
    <g text-rendering="geometricPrecision" stroke-miterlimit="1.45" shape-rendering="geometricPrecision" transform="matrix(1,0,0,1,-314,-62)" stroke-linecap="butt">
      <path fill="none" d="M329 319 L486 319 L486 359 L329 359 Z" clip-path="url(#clipPath2)"/>
      <text x="390.2002" xml:space="preserve" y="343.1543" clip-path="url(#clipPath2)" font-family="sans-serif" stroke="none">API(s)</text>
    </g>
    <g fill="url(#linearGradient6)" text-rendering="geometricPrecision" shape-rendering="geometricPrecision" transform="matrix(1,0,0,1,-314,-62)" stroke="url(#linearGradient6)">
      <path d="M784 292 L941 292 L941 332 L784 332 Z" stroke="none" clip-path="url(#clipPath2)"/>
    </g>
    <g text-rendering="geometricPrecision" stroke-miterlimit="1.45" shape-rendering="geometricPrecision" transform="matrix(1,0,0,1,-314,-62)" stroke-linecap="butt">
      <path fill="none" d="M784 292 L941 292 L941 332 L784 332 Z" clip-path="url(#clipPath2)"/>
      <text x="836.6309" xml:space="preserve" y="316.1543" clip-path="url(#clipPath2)" font-family="sans-serif" stroke="none">Backend</text>
    </g>
    <g text-rendering="geometricPrecision" stroke-miterlimit="1.45" shape-rendering="geometricPrecision" transform="matrix(1,0,0,1,-314,-62)" stroke-linecap="butt">
      <path fill="none" d="M542 202 L735 202 L735 242 L542 242 Z" clip-path="url(#clipPath2)"/>
      <text x="571.3018" xml:space="preserve" y="219.1699" clip-path="url(#clipPath2)" font-family="sans-serif" stroke="none">Many shades between</text>
      <text x="571.3779" xml:space="preserve" y="233.1387" clip-path="url(#clipPath2)" font-family="sans-serif" stroke="none">ideal types and reality</text>
    </g>
    <g stroke-linecap="round" transform="matrix(1,0,0,1,-314,-62)" stroke-dashoffset="2" text-rendering="geometricPrecision" shape-rendering="geometricPrecision" stroke-dasharray="0,8" stroke-width="2" stroke-miterlimit="1.45">
      <path fill="none" d="M776.8039 182 L493.2304 182" clip-path="url(#clipPath2)"/>
    </g>
    <g text-rendering="geometricPrecision" stroke-miterlimit="1.45" shape-rendering="geometricPrecision" transform="matrix(1.125,0,0,1.125,468.9914,120)" stroke-linecap="butt">
      <path fill="none" d="M0 0 Q-6 0 -10 -6" clip-path="url(#clipPath3)"/>
      <path fill="none" d="M0 0 Q-6 0 -10 6" clip-path="url(#clipPath3)"/>
    </g>
    <g text-rendering="geometricPrecision" stroke-miterlimit="1.45" shape-rendering="geometricPrecision" transform="matrix(-1.125,0,0,-1.125,173.0429,120)" stroke-linecap="butt">
      <path fill="none" d="M0 0 Q-6 0 -10 -6" clip-path="url(#clipPath4)"/>
      <path fill="none" d="M0 0 Q-6 0 -10 6" clip-path="url(#clipPath4)"/>
    </g>
    <g text-rendering="geometricPrecision" stroke-miterlimit="1.45" shape-rendering="geometricPrecision" transform="matrix(1,0,0,1,-314,-62)" stroke-linecap="butt">
      <path fill="none" d="M506.0131 97 L407.5 97 L407.5 162.0366" clip-path="url(#clipPath2)"/>
    </g>
    <g text-rendering="geometricPrecision" stroke-miterlimit="1.45" shape-rendering="geometricPrecision" transform="matrix(1,0,0,1,-314,-62)" stroke-linecap="butt">
      <path fill="none" d="M762.0013 97 L862.5 97 L862.5 162.0366" clip-path="url(#clipPath2)"/>
      <path fill="none" d="M443.4247 292.0187 L443.4247 310.9814" clip-path="url(#clipPath2)"/>
      <path d="M443.4247 318.9814 L448.4247 306.9814 L443.4247 309.9814 L438.4247 306.9814 Z" clip-path="url(#clipPath2)" stroke="none"/>
      <path fill="none" d="M369.7247 318.9986 L369.7247 299.9979" clip-path="url(#clipPath2)"/>
      <path d="M369.7247 291.9979 L364.7247 303.9979 L369.7247 300.9979 L374.7247 303.9979 Z" clip-path="url(#clipPath2)" stroke="none"/>
    </g>
  </g>
</svg>
