<?xml version="1.0" encoding="UTF-8"?><svg xmlns="http://www.w3.org/2000/svg" xmlns:xlink="http://www.w3.org/1999/xlink" fill-opacity="1" color-rendering="auto" color-interpolation="auto" text-rendering="auto" stroke="black" stroke-linecap="square" width="261" stroke-miterlimit="10" shape-rendering="auto" stroke-opacity="1" fill="black" stroke-dasharray="none" font-weight="normal" stroke-width="1" height="140" font-family="'Dialog'" font-style="normal" stroke-linejoin="miter" font-size="12px" stroke-dashoffset="0" image-rendering="auto">
  <!--Generated by ySVG 2.5-->
  <defs id="genericDefs"/>
  <g>
    <defs id="defs1">
      <clipPath clipPathUnits="userSpaceOnUse" id="clipPath1">
        <path d="M0 0 L261 0 L261 140 L0 140 L0 0 Z"/>
      </clipPath>
      <clipPath clipPathUnits="userSpaceOnUse" id="clipPath2">
        <path d="M260 222 L521 222 L521 362 L260 362 L260 222 Z"/>
      </clipPath>
    </defs>
    <g fill="white" text-rendering="geometricPrecision" shape-rendering="geometricPrecision" transform="translate(-260,-222)" stroke="white">
      <rect x="260" width="261" height="140" y="222" clip-path="url(#clipPath2)" stroke="none"/>
    </g>
    <g text-rendering="geometricPrecision" stroke-miterlimit="1.45" shape-rendering="geometricPrecision" transform="matrix(1,0,0,1,-260,-222)" stroke-linecap="butt">
      <path fill="none" d="M381 237 L414 237 L414 277 L381 277 Z" clip-path="url(#clipPath2)"/>
      <text x="388.8721" font-size="20px" y="263.9238" clip-path="url(#clipPath2)" font-family="sans-serif" stroke="none" xml:space="preserve">M</text>
    </g>
    <g text-rendering="geometricPrecision" stroke-miterlimit="1.45" shape-rendering="geometricPrecision" transform="matrix(1,0,0,1,-260,-222)" stroke-linecap="butt">
      <path fill="none" d="M427 237 L460 237 L460 277 L427 277 Z" clip-path="url(#clipPath2)"/>
      <text x="436.6592" font-size="20px" y="263.9238" clip-path="url(#clipPath2)" font-family="sans-serif" stroke="none" xml:space="preserve">V</text>
    </g>
    <g text-rendering="geometricPrecision" stroke-miterlimit="1.45" shape-rendering="geometricPrecision" transform="matrix(1,0,0,1,-260,-222)" stroke-linecap="butt">
      <path fill="none" d="M473 237 L506 237 L506 277 L473 277 Z" clip-path="url(#clipPath2)"/>
      <text x="483.3916" font-size="20px" y="263.9238" clip-path="url(#clipPath2)" font-family="sans-serif" stroke="none" xml:space="preserve">T</text>
    </g>
    <g text-rendering="geometricPrecision" stroke-miterlimit="1.45" shape-rendering="geometricPrecision" transform="matrix(1,0,0,1,-260,-222)" stroke-linecap="butt">
      <path fill="none" d="M275 237 L368 237 L368 277 L275 277 Z" clip-path="url(#clipPath2)"/>
      <text x="298.2324" xml:space="preserve" y="261.1543" clip-path="url(#clipPath2)" font-family="sans-serif" stroke="none">Django:</text>
    </g>
    <g text-rendering="geometricPrecision" stroke-miterlimit="1.45" shape-rendering="geometricPrecision" transform="matrix(1,0,0,1,-260,-222)" stroke-linecap="butt">
      <path fill="none" d="M381 307 L414 307 L414 347 L381 347 Z" clip-path="url(#clipPath2)"/>
      <text x="388.8721" font-size="20px" y="333.9238" clip-path="url(#clipPath2)" font-family="sans-serif" stroke="none" xml:space="preserve">M</text>
    </g>
    <g text-rendering="geometricPrecision" stroke-miterlimit="1.45" shape-rendering="geometricPrecision" transform="matrix(1,0,0,1,-260,-222)" stroke-linecap="butt">
      <path fill="none" d="M427 307 L460 307 L460 347 L427 347 Z" clip-path="url(#clipPath2)"/>
      <text x="436.6592" font-size="20px" y="333.9238" clip-path="url(#clipPath2)" font-family="sans-serif" stroke="none" xml:space="preserve">V</text>
    </g>
    <g text-rendering="geometricPrecision" stroke-miterlimit="1.45" shape-rendering="geometricPrecision" transform="matrix(1,0,0,1,-260,-222)" stroke-linecap="butt">
      <path fill="none" d="M473 307 L506 307 L506 347 L473 347 Z" clip-path="url(#clipPath2)"/>
      <text x="482.5176" font-size="20px" y="333.9238" clip-path="url(#clipPath2)" font-family="sans-serif" stroke="none" xml:space="preserve">C</text>
    </g>
    <g text-rendering="geometricPrecision" stroke-miterlimit="1.45" shape-rendering="geometricPrecision" transform="matrix(1,0,0,1,-260,-222)" stroke-linecap="butt">
      <path fill="none" d="M275 307 L368 307 L368 347 L275 347 Z" clip-path="url(#clipPath2)"/>
      <text x="293.0732" xml:space="preserve" y="331.1543" clip-path="url(#clipPath2)" font-family="sans-serif" stroke="none">The Rest:</text>
    </g>
    <g text-rendering="geometricPrecision" stroke-miterlimit="1.45" shape-rendering="geometricPrecision" transform="matrix(1,0,0,1,-260,-222)" stroke-linecap="butt">
      <path fill="none" d="M489.5 277.0098 L450.2022 302.6221" clip-path="url(#clipPath2)"/>
    </g>
    <g text-rendering="geometricPrecision" stroke-miterlimit="1.45" shape-rendering="geometricPrecision" transform="matrix(1,0,0,1,-260,-222)" stroke-linecap="butt">
      <path d="M443.5 306.9902 L456.2834 304.6269 L451.04 302.0761 L450.8232 296.2491 Z" stroke="none" clip-path="url(#clipPath2)"/>
      <path fill="none" d="M443.5 277.0098 L482.7978 302.6221" clip-path="url(#clipPath2)"/>
      <path d="M489.5 306.9902 L482.1768 296.2491 L481.96 302.0761 L476.7166 304.6269 Z" clip-path="url(#clipPath2)" stroke="none"/>
    </g>
  </g>
</svg>
